<?xml version="1.0" standalone="no"?>
<!DOCTYPE svg PUBLIC "-//W3C//DTD SVG 20010904//EN"
 "http://www.w3.org/TR/2001/REC-SVG-20010904/DTD/svg10.dtd">
<svg version="1.0" xmlns="http://www.w3.org/2000/svg"
 width="700.000000pt" height="700.000000pt" viewBox="0 0 700.000000 700.000000"
 preserveAspectRatio="xMidYMid meet">
<metadata>
Created by potrace 1.14, written by Peter Selinger 2001-2017
</metadata>
<g transform="translate(0.000000,700.000000) scale(0.100000,-0.100000)"
fill="#000000" stroke="none">
<path d="M368 6984 c-177 -42 -324 -196 -358 -373 -14 -75 -14 -6147 0 -6222
25 -131 131 -274 248 -333 117 -59 -102 -56 3238 -56 1996 0 3080 3 3115 10
90 17 190 72 253 141 31 33 68 83 81 110 58 114 55 -96 55 3235 0 2041 -3
3079 -10 3115 -26 138 -129 273 -254 334 -39 19 -95 40 -125 45 -35 7 -1117
10 -3120 9 -2579 -1 -3075 -3 -3123 -15z m3512 -1388 c631 -89 1022 -387 1145
-871 30 -117 48 -321 40 -440 -24 -345 -128 -588 -338 -791 -97 -95 -179 -154
-302 -220 -49 -26 -91 -48 -93 -49 -1 -1 198 -382 443 -846 245 -464 445 -852
445 -862 0 -16 -26 -17 -456 -15 l-457 3 -386 755 -386 755 -337 3 -338 2 0
-760 0 -760 -425 0 -425 0 0 2061 0 2061 878 -5 c738 -4 895 -7 992 -21z"/>
<path d="M2860 4316 l0 -636 358 0 c196 0 396 5 444 10 288 33 464 178 535
440 23 88 23 289 0 380 -45 170 -143 299 -279 364 -140 67 -156 69 -630 73
l-428 4 0 -635z"/>
</g>
</svg>
